<svg width="1024" height="1024" viewBox="0 0 1024 1024" fill="none" xmlns="http://www.w3.org/2000/svg">
<path d="M166.942 779.507C246.896 889.038 374.641 960.087 518.317 960.087C603.546 960.087 683.168 935.084 750.534 891.879C755.97 907.772 764.802 922.09 776.164 933.967C701.356 981.924 612.947 1009.68 518.317 1009.68C358.106 1009.68 215.728 930.137 126.991 807.662C142.285 801.218 155.885 791.549 166.942 779.507ZM518.317 14.749C786.674 14.7491 1005 237.902 1005 512.203C1005 606.131 979.399 694.062 934.958 769.09C922.805 758.303 908.341 750.064 892.403 745.204C933.043 677.28 956.486 597.489 956.486 512.204C956.486 265.252 759.925 64.3381 518.317 64.3379C447.207 64.3379 380 81.7426 320.558 112.602C316.229 96.27 308.384 81.3708 297.881 68.7617C364.097 34.233 439.023 14.749 518.317 14.749ZM125.203 219.237C136.226 231.311 149.797 241.016 165.066 247.504C111.702 321.706 80.1467 413.259 80.1467 512.204C80.1467 537.881 82.2735 563.061 86.3528 587.568C85.0886 587.527 83.8194 587.505 82.5452 587.505C66.9688 587.505 52.1187 590.615 38.5813 596.246C34.0139 568.92 31.6331 540.84 31.6331 512.203C31.6331 402.765 66.386 301.469 125.203 219.237Z" fill="#027CC2"/>
<circle cx="209.824" cy="142.028" r="63.6395" fill="#66CBE1"/>
<circle cx="82.5446" cy="702.056" r="63.6395" fill="#66CBE1"/>
<circle cx="858.947" cy="854.791" r="63.6395" fill="#66CBE1"/>
<path d="M519.295 163.767C712.604 163.767 869.311 320.474 869.312 513.783C869.312 707.092 712.604 863.801 519.295 863.801C325.986 863.801 169.277 707.092 169.277 513.783C169.278 320.474 325.986 163.767 519.295 163.767ZM416.859 556.636C399.216 556.636 384.219 562.811 371.869 575.161C359.519 587.511 353.344 602.508 353.344 620.151C353.344 633.913 348.58 644.411 339.053 651.645C329.525 658.878 320.174 662.495 311 662.495C320.527 675.198 333.054 685.431 348.58 693.194C364.106 700.957 379.809 704.839 395.688 704.839C418.976 704.839 438.914 696.546 455.498 679.962C472.083 663.377 480.375 643.44 480.375 620.151C480.375 602.508 474.2 587.511 461.85 575.161C449.499 562.811 434.502 556.636 416.859 556.636ZM663.246 324.011C657.424 324.187 652.572 326.216 648.69 330.098L459.203 519.585L517.425 577.808L706.913 388.32C711.147 384.086 713.265 379.146 713.265 373.5C713.265 367.854 711.147 362.914 706.913 358.68L678.331 330.098C674.097 325.863 669.068 323.834 663.246 324.011Z" fill="#027CC2"/>
</svg>
